Geologica-ThinSharp.ufo
<glyph name="comma" format="2">
  <advance width="500"/>
  <unicode hex="002C"/>
  <outline>
    <contour>
      <point x="94" y="-236" type="line"/>
      <point x="286" y="-231"/>
      <point x="363" y="-90"/>
      <point x="363" y="37" type="curve" smooth="yes"/>
      <point x="363" y="121"/>
      <point x="317" y="178"/>
      <point x="246" y="178" type="curve" smooth="yes"/>
      <point x="186" y="178"/>
      <point x="142" y="136"/>
      <point x="142" y="80" type="curve" smooth="yes"/>
      <point x="142" y="16"/>
      <point x="203" y="-27"/>
      <point x="272" y="-11" type="curve"/>
      <point x="270" y="-85"/>
      <point x="200" y="-161"/>
      <point x="94" y="-158" type="curve"/>
    </contour>
  </outline>
</glyph>
<glyph name="hyphen" format="2">
  <advance width="764"/>
  <unicode hex="002D"/>
  <outline>
    <contour>
      <point x="136" y="512" type="line"/>
      <point x="628" y="512" type="line"/>
      <point x="628" y="608" type="line"/>
      <point x="136" y="608" type="line"/>
    </contour>
  </outline>
</glyph>
<glyph name="zero" format="2">
  <advance width="1348"/>
  <unicode hex="0030"/>
  <outline>
    <contour>
      <point x="674" y="-30" type="curve" smooth="yes"/>
      <point x="1010" y="-30"/>
      <point x="1228" y="300"/>
      <point x="1228" y="700" type="curve" smooth="yes"/>
      <point x="1228" y="1102"/>
      <point x="1010" y="1430"/>
      <point x="674" y="1430" type="curve" smooth="yes"/>
      <point x="334" y="1430"/>
      <point x="120" y="1102"/>
      <point x="120" y="700" type="curve" smooth="yes"/>
      <point x="120" y="300"/>
      <point x="334" y="-30"/>
    </contour>
    <contour>
      <point x="674" y="82" type="curve" smooth="yes"/>
      <point x="418" y="82"/>
      <point x="244" y="324"/>
      <point x="244" y="700" type="curve" smooth="yes"/>
      <point x="244" y="1076"/>
      <point x="418" y="1318"/>
      <point x="674" y="1318" type="curve" smooth="yes"/>
      <point x="930" y="1318"/>
      <point x="1104" y="1076"/>
      <point x="1104" y="700" type="curve" smooth="yes"/>
      <point x="1104" y="324"/>
      <point x="930" y="82"/>
    </contour>
  </outline>
</glyph>
<glyph name="three" format="2">
  <advance width="1156"/>
  <unicode hex="0033"/>
  <outline>
    <contour>
      <point x="522" y="-30" type="curve" smooth="yes"/>
      <point x="812" y="-30"/>
      <point x="1018" y="142"/>
      <point x="1018" y="408" type="curve" smooth="yes"/>
      <point x="1018" y="704"/>
      <point x="758" y="838"/>
      <point x="456" y="818" type="curve"/>
      <point x="954" y="1300" type="line"/>
      <point x="954" y="1400" type="line"/>
      <point x="116" y="1400" type="line"/>
      <point x="92" y="1292" type="line"/>
      <point x="794" y="1292" type="line"/>
      <point x="284" y="792" type="line"/>
      <point x="326" y="706" type="line"/>
      <point x="384" y="718"/>
      <point x="440" y="724"/>
      <point x="494" y="724" type="curve" smooth="yes"/>
      <point x="738" y="724"/>
      <point x="894" y="606"/>
      <point x="894" y="408" type="curve" smooth="yes"/>
      <point x="894" y="208"/>
      <point x="748" y="82"/>
      <point x="516" y="82" type="curve" smooth="yes"/>
      <point x="382" y="82"/>
      <point x="228" y="128"/>
      <point x="128" y="200" type="curve"/>
      <point x="128" y="74" type="line"/>
      <point x="226" y="12"/>
      <point x="376" y="-30"/>
    </contour>
  </outline>
</glyph>
<glyph name="greater" format="2">
  <advance width="1296"/>
  <unicode hex="003E"/>
  <outline>
    <contour>
      <point x="180" y="236" type="line"/>
      <point x="1116" y="618" type="line"/>
      <point x="1116" y="710" type="line"/>
      <point x="180" y="1096" type="line"/>
      <point x="180" y="977" type="line"/>
      <point x="962" y="664" type="line"/>
      <point x="180" y="353" type="line"/>
    </contour>
  </outline>
</glyph>
<glyph name="B" format="2">
  <advance width="1220"/>
  <unicode hex="0042"/>
  <outline>
    <contour>
      <point x="200" y="0" type="line"/>
      <point x="650" y="0" type="line" smooth="yes"/>
      <point x="920" y="0"/>
      <point x="1090" y="164"/>
      <point x="1090" y="376" type="curve" smooth="yes"/>
      <point x="1090" y="568"/>
      <point x="964" y="694"/>
      <point x="808" y="736" type="curve"/>
      <point x="918" y="770"/>
      <point x="1046" y="910"/>
      <point x="1046" y="1048" type="curve" smooth="yes"/>
      <point x="1046" y="1278"/>
      <point x="870" y="1400"/>
      <point x="618" y="1400" type="curve" smooth="yes"/>
      <point x="200" y="1400" type="line"/>
    </contour>
    <contour>
      <point x="316" y="108" type="line"/>
      <point x="316" y="670" type="line"/>
      <point x="604" y="670" type="line" smooth="yes"/>
      <point x="858" y="670"/>
      <point x="974" y="572"/>
      <point x="974" y="386" type="curve" smooth="yes"/>
      <point x="974" y="196"/>
      <point x="860" y="108"/>
      <point x="622" y="108" type="curve" smooth="yes"/>
    </contour>
    <contour>
      <point x="316" y="778" type="line"/>
      <point x="316" y="1292" type="line"/>
      <point x="592" y="1292" type="line" smooth="yes"/>
      <point x="808" y="1292"/>
      <point x="930" y="1206"/>
      <point x="930" y="1046" type="curve" smooth="yes"/>
      <point x="930" y="878"/>
      <point x="796" y="778"/>
      <point x="594" y="778" type="curve" smooth="yes"/>
    </contour>
  </outline>
</glyph>
<glyph name="l" format="2">
  <advance width="452"/>
  <unicode hex="006C"/>
  <anchor x="226" y="0" name="bottom"/>
  <anchor x="282" y="1440" name="caron"/>
  <anchor x="226" y="1440" name="top"/>
  <outline>
    <contour>
      <point x="170" y="0" type="line"/>
      <point x="282" y="0" type="line"/>
      <point x="282" y="1480" type="line"/>
      <point x="170" y="1338" type="line"/>
    </contour>
  </outline>
</glyph>
<glyph name="bar" format="2">
  <advance width="500"/>
  <unicode hex="007C"/>
  <outline>
    <contour>
      <point x="200" y="-220" type="line"/>
      <point x="300" y="-220" type="line"/>
      <point x="300" y="1600" type="line"/>
      <point x="200" y="1600" type="line"/>
    </contour>
  </outline>
</glyph>
<glyph name="logicalnot" format="2">
  <advance width="1296"/>
  <unicode hex="00AC"/>
  <outline>
    <contour>
      <point x="1016" y="458" type="line"/>
      <point x="1116" y="458" type="line"/>
      <point x="1116" y="870" type="line"/>
      <point x="180" y="870" type="line"/>
      <point x="180" y="774" type="line"/>
      <point x="1016" y="774" type="line"/>
    </contour>
  </outline>
</glyph>
<glyph name="twosuperior" format="2">
  <advance width="824"/>
  <unicode hex="00B2"/>
  <outline>
    <contour>
      <point x="108" y="722" type="line"/>
      <point x="712" y="722" type="line"/>
      <point x="732" y="814" type="line"/>
      <point x="244" y="814" type="line"/>
      <point x="420" y="970" type="line" smooth="yes"/>
      <point x="636" y="1160"/>
      <point x="700" y="1270"/>
      <point x="700" y="1386" type="curve" smooth="yes"/>
      <point x="700" y="1548"/>
      <point x="572" y="1652"/>
      <point x="388" y="1652" type="curve" smooth="yes"/>
      <point x="301" y="1652"/>
      <point x="221" y="1628"/>
      <point x="156" y="1582" type="curve"/>
      <point x="156" y="1484" type="line"/>
      <point x="216" y="1536"/>
      <point x="300" y="1558"/>
      <point x="372" y="1558" type="curve" smooth="yes"/>
      <point x="512" y="1558"/>
      <point x="598" y="1490"/>
      <point x="598" y="1380" type="curve" smooth="yes"/>
      <point x="598" y="1266"/>
      <point x="512" y="1164"/>
      <point x="314" y="988" type="curve" smooth="yes"/>
      <point x="108" y="804" type="line"/>
    </contour>
  </outline>
</glyph>
<glyph name="onesuperior" format="2">
  <advance width="582"/>
  <unicode hex="00B9"/>
  <outline>
    <contour>
      <point x="304" y="722" type="line"/>
      <point x="402" y="722" type="line"/>
      <point x="402" y="1652" type="line"/>
      <point x="394" y="1652" type="line"/>
      <point x="42" y="1522" type="line"/>
      <point x="42" y="1432" type="line"/>
      <point x="304" y="1526" type="line"/>
    </contour>
  </outline>
</glyph>
<glyph name="Eth" format="2">
  <advance width="1436"/>
  <unicode hex="00D0"/>
  <anchor x="476" y="742" name="bar"/>
  <anchor x="716" y="1400" name="top"/>
  <outline>
    <contour>
      <point x="64" y="698" type="line"/>
      <point x="888" y="698" type="line"/>
      <point x="888" y="786" type="line"/>
      <point x="64" y="786" type="line"/>
    </contour>
    <component base="D" xOffset="40"/>
  </outline>
</glyph>
<glyph name="germandbls" format="2">
  <advance width="1162"/>
  <unicode hex="00DF"/>
  <outline>
    <contour>
      <point x="710" y="-30" type="curve" smooth="yes"/>
      <point x="932" y="-30"/>
      <point x="1082" y="86"/>
      <point x="1082" y="260" type="curve" smooth="yes"/>
      <point x="1082" y="432"/>
      <point x="972" y="504"/>
      <point x="858" y="570" type="curve" smooth="yes"/>
      <point x="780" y="616"/>
      <point x="694" y="664"/>
      <point x="694" y="754" type="curve" smooth="yes"/>
      <point x="694" y="816"/>
      <point x="752" y="864"/>
      <point x="802" y="916" type="curve" smooth="yes"/>
      <point x="874" y="992"/>
      <point x="962" y="1054"/>
      <point x="962" y="1176" type="curve" smooth="yes"/>
      <point x="962" y="1354"/>
      <point x="800" y="1470"/>
      <point x="570" y="1470" type="curve" smooth="yes"/>
      <point x="326" y="1470"/>
      <point x="170" y="1310"/>
      <point x="170" y="1092" type="curve" smooth="yes"/>
      <point x="170" y="0" type="line"/>
      <point x="282" y="0" type="line"/>
      <point x="282" y="1060" type="line" smooth="yes"/>
      <point x="282" y="1250"/>
      <point x="382" y="1362"/>
      <point x="574" y="1362" type="curve" smooth="yes"/>
      <point x="728" y="1362"/>
      <point x="840" y="1292"/>
      <point x="840" y="1174" type="curve" smooth="yes"/>
      <point x="840" y="1090"/>
      <point x="774" y="1040"/>
      <point x="708" y="972" type="curve" smooth="yes"/>
      <point x="652" y="914"/>
      <point x="570" y="848"/>
      <point x="570" y="744" type="curve" smooth="yes"/>
      <point x="570" y="612"/>
      <point x="696" y="536"/>
      <point x="786" y="480" type="curve" smooth="yes"/>
      <point x="878" y="424"/>
      <point x="960" y="370"/>
      <point x="960" y="256" type="curve" smooth="yes"/>
      <point x="960" y="142"/>
      <point x="866" y="74"/>
      <point x="716" y="74" type="curve" smooth="yes"/>
      <point x="642" y="74"/>
      <point x="570" y="88"/>
      <point x="502" y="112" type="curve"/>
      <point x="502" y="-4" type="line"/>
      <point x="574" y="-22"/>
      <point x="658" y="-30"/>
    </contour>
  </outline>
</glyph>
<glyph name="Eng" format="2">
  <advance width="1452"/>
  <unicode hex="014A"/>
  <outline>
    <contour>
      <point x="1154" y="-2" type="line"/>
      <point x="1154" y="198" type="line"/>
      <point x="300" y="1400" type="line"/>
      <point x="200" y="1400" type="line"/>
      <point x="200" y="0" type="line"/>
      <point x="316" y="0" type="line"/>
      <point x="316" y="1188" type="line"/>
    </contour>
    <contour>
      <point x="1020" y="-450" type="curve" smooth="yes"/>
      <point x="1164" y="-450"/>
      <point x="1252" y="-356"/>
      <point x="1252" y="-194" type="curve" smooth="yes"/>
      <point x="1252" y="1400" type="line"/>
      <point x="1136" y="1400" type="line"/>
      <point x="1136" y="-174" type="line" smooth="yes"/>
      <point x="1136" y="-284"/>
      <point x="1104" y="-342"/>
      <point x="1004" y="-342" type="curve" smooth="yes"/>
      <point x="940" y="-342"/>
      <point x="908" y="-330"/>
      <point x="870" y="-314" type="curve"/>
      <point x="870" y="-418" type="line"/>
      <point x="908" y="-436"/>
      <point x="960" y="-450"/>
    </contour>
  </outline>
</glyph>
<glyph name="dieresiscomb" format="2">
  <unicode hex="0308"/>
  <anchor x="286" y="960" name="_top"/>
  <anchor x="286" y="1284" name="top"/>
  <outline>
    <contour>
      <point x="104" y="1162" type="curve" smooth="yes"/>
      <point x="156" y="1162"/>
      <point x="198" y="1204"/>
      <point x="198" y="1256" type="curve" smooth="yes"/>
      <point x="198" y="1308"/>
      <point x="156" y="1350"/>
      <point x="104" y="1350" type="curve" smooth="yes"/>
      <point x="52" y="1350"/>
      <point x="10" y="1308"/>
      <point x="10" y="1256" type="curve" smooth="yes"/>
      <point x="10" y="1204"/>
      <point x="52" y="1162"/>
    </contour>
    <contour>
      <point x="468" y="1162" type="curve" smooth="yes"/>
      <point x="520" y="1162"/>
      <point x="562" y="1204"/>
      <point x="562" y="1256" type="curve" smooth="yes"/>
      <point x="562" y="1308"/>
      <point x="520" y="1350"/>
      <point x="468" y="1350" type="curve" smooth="yes"/>
      <point x="416" y="1350"/>
      <point x="374" y="1308"/>
      <point x="374" y="1256" type="curve" smooth="yes"/>
      <point x="374" y="1204"/>
      <point x="416" y="1162"/>
    </contour>
  </outline>
</glyph>
<glyph name="hookabovecomb" format="2">
  <unicode hex="0309"/>
  <anchor x="220" y="960" name="_top"/>
  <outline>
    <contour>
      <point x="160" y="1170" type="curve"/>
      <point x="252" y="1170" type="line"/>
      <point x="218" y="1248"/>
      <point x="232" y="1274"/>
      <point x="320" y="1314" type="curve" smooth="yes"/>
      <point x="428" y="1362"/>
      <point x="462" y="1396"/>
      <point x="462" y="1474" type="curve" smooth="yes"/>
      <point x="462" y="1566"/>
      <point x="360" y="1634"/>
      <point x="222" y="1634" type="curve" smooth="yes"/>
      <point x="148" y="1634"/>
      <point x="72" y="1620"/>
      <point x="10" y="1594" type="curve"/>
      <point x="10" y="1508" type="line"/>
      <point x="66" y="1534"/>
      <point x="146" y="1550"/>
      <point x="216" y="1550" type="curve" smooth="yes"/>
      <point x="302" y="1550"/>
      <point x="366" y="1514"/>
      <point x="366" y="1456" type="curve" smooth="yes"/>
      <point x="366" y="1410"/>
      <point x="344" y="1396"/>
      <point x="250" y="1360" type="curve" smooth="yes"/>
      <point x="142" y="1318"/>
      <point x="116" y="1260"/>
    </contour>
  </outline>
</glyph>
<glyph name="hungarumlautcomb" format="2">
  <unicode hex="030B"/>
  <anchor x="234" y="960" name="_top"/>
  <outline>
    <contour>
      <point x="350" y="1170" type="line"/>
      <point x="458" y="1170" type="line"/>
      <point x="652" y="1504" type="line"/>
      <point x="532" y="1504" type="line"/>
    </contour>
    <contour>
      <point x="10" y="1170" type="line"/>
      <point x="118" y="1170" type="line"/>
      <point x="312" y="1504" type="line"/>
      <point x="192" y="1504" type="line"/>
    </contour>
  </outline>
</glyph>
<glyph name="horncomb" format="2">
  <unicode hex="031B"/>
  <anchor x="396" y="960" name="_horn"/>
  <outline>
    <contour>
      <point x="416" y="842" type="curve" smooth="yes"/>
      <point x="544" y="842"/>
      <point x="608" y="916"/>
      <point x="608" y="1004" type="curve" smooth="yes"/>
      <point x="608" y="1049"/>
      <point x="590" y="1101"/>
      <point x="551" y="1150" type="curve"/>
      <point x="440" y="1150" type="line"/>
      <point x="482" y="1095"/>
      <point x="502" y="1041"/>
      <point x="502" y="1002" type="curve" smooth="yes"/>
      <point x="502" y="958"/>
      <point x="472" y="926"/>
      <point x="396" y="926" type="curve" smooth="yes"/>
      <point x="326" y="926"/>
      <point x="170" y="990"/>
      <point x="10" y="990" type="curve"/>
      <point x="10" y="922" type="line"/>
      <point x="180" y="922"/>
      <point x="322" y="842"/>
    </contour>
  </outline>
</glyph>
<glyph name="tonos" format="2">
  <advance width="450"/>
  <unicode hex="0384"/>
  <anchor x="200" y="960" name="_top"/>
  <outline>
    <contour>
      <point x="138" y="1170" type="line"/>
      <point x="246" y="1170" type="line"/>
      <point x="388" y="1504" type="line"/>
      <point x="268" y="1504" type="line"/>
    </contour>
  </outline>
</glyph>
<glyph name="Theta" format="2">
  <advance width="1676"/>
  <unicode hex="0398"/>
  <outline>
    <contour>
      <point x="838" y="-30" type="curve" smooth="yes"/>
      <point x="1246" y="-30"/>
      <point x="1564" y="286"/>
      <point x="1564" y="700" type="curve" smooth="yes"/>
      <point x="1564" y="1108"/>
      <point x="1246" y="1430"/>
      <point x="838" y="1430" type="curve" smooth="yes"/>
      <point x="426" y="1430"/>
      <point x="112" y="1116"/>
      <point x="112" y="700" type="curve" smooth="yes"/>
      <point x="112" y="286"/>
      <point x="426" y="-30"/>
    </contour>
    <contour>
      <point x="480" y="652" type="line"/>
      <point x="1184" y="652" type="line"/>
      <point x="1184" y="760" type="line"/>
      <point x="504" y="760" type="line"/>
    </contour>
    <contour>
      <point x="838" y="82" type="curve" smooth="yes"/>
      <point x="502" y="82"/>
      <point x="232" y="328"/>
      <point x="232" y="700" type="curve" smooth="yes"/>
      <point x="232" y="1072"/>
      <point x="502" y="1318"/>
      <point x="838" y="1318" type="curve" smooth="yes"/>
      <point x="1174" y="1318"/>
      <point x="1444" y="1072"/>
      <point x="1444" y="700" type="curve" smooth="yes"/>
      <point x="1444" y="328"/>
      <point x="1174" y="82"/>
    </contour>
  </outline>
</glyph>
<glyph name="zeta" format="2">
  <advance width="886"/>
  <unicode hex="03B6"/>
  <outline>
    <contour>
      <point x="757" y="-420" type="line"/>
      <point x="810" y="-312"/>
      <point x="833" y="-231"/>
      <point x="833" y="-156" type="curve" smooth="yes"/>
      <point x="833" y="209"/>
      <point x="211" y="94"/>
      <point x="211" y="460" type="curve" smooth="yes"/>
      <point x="211" y="723"/>
      <point x="533" y="1053"/>
      <point x="862" y="1344" type="curve"/>
      <point x="862" y="1440" type="line"/>
      <point x="130" y="1440" type="line"/>
      <point x="106" y="1336" type="line"/>
      <point x="702" y="1336" type="line"/>
      <point x="387" y="1051"/>
      <point x="90" y="751"/>
      <point x="90" y="458" type="curve" smooth="yes"/>
      <point x="90" y="16"/>
      <point x="721" y="85"/>
      <point x="721" y="-178" type="curve" smooth="yes"/>
      <point x="721" y="-232"/>
      <point x="708" y="-290"/>
      <point x="640" y="-420" type="curve"/>
    </contour>
  </outline>
</glyph>
<glyph name="mu" format="2">
  <advance width="1162"/>
  <unicode hex="03BC"/>
  <outline>
    <contour>
      <point x="170" y="-420" type="line"/>
      <point x="282" y="-420" type="line"/>
      <point x="282" y="98" type="line"/>
      <point x="342" y="4"/>
      <point x="444" y="-30"/>
      <point x="564" y="-30" type="curve" smooth="yes"/>
      <point x="684" y="-30"/>
      <point x="792" y="20"/>
      <point x="880" y="126" type="curve"/>
      <point x="880" y="0" type="line"/>
      <point x="992" y="0" type="line"/>
      <point x="992" y="1000" type="line"/>
      <point x="880" y="860" type="line"/>
      <point x="880" y="390" type="line" smooth="yes"/>
      <point x="880" y="204"/>
      <point x="736" y="78"/>
      <point x="582" y="78" type="curve" smooth="yes"/>
      <point x="414" y="78"/>
      <point x="282" y="176"/>
      <point x="282" y="370" type="curve" smooth="yes"/>
      <point x="282" y="1000" type="line"/>
      <point x="170" y="860" type="line"/>
    </contour>
  </outline>
</glyph>
<glyph name="kaiSymbol" format="2">
  <advance width="1056"/>
  <unicode hex="03D7"/>
  <outline>
    <contour>
      <point x="568" y="-240" type="line"/>
      <point x="720" y="-266"/>
      <point x="806" y="-156"/>
      <point x="966" y="0" type="curve"/>
      <point x="552" y="598" type="line"/>
      <point x="618" y="664" type="line" smooth="yes"/>
      <point x="748" y="794"/>
      <point x="814" y="882"/>
      <point x="934" y="866" type="curve"/>
      <point x="934" y="970" type="line"/>
      <point x="782" y="992"/>
      <point x="696" y="882"/>
      <point x="536" y="726" type="curve" smooth="yes"/>
      <point x="282" y="478" type="line"/>
      <point x="282" y="1000" type="line"/>
      <point x="170" y="860" type="line"/>
      <point x="170" y="0" type="line"/>
      <point x="282" y="0" type="line"/>
      <point x="282" y="340" type="line"/>
      <point x="470" y="526" type="line"/>
      <point x="824" y="4" type="line"/>
      <point x="728" y="-92"/>
      <point x="668" y="-154"/>
      <point x="568" y="-134" type="curve"/>
    </contour>
  </outline>
</glyph>
<glyph name="te-cy" format="2">
  <advance width="932"/>
  <unicode hex="0442"/>
  <anchor x="466" y="486" name="bar"/>
  <anchor x="466" y="0" name="bottom"/>
  <anchor x="466" y="960" name="top"/>
  <outline>
    <contour>
      <point x="410" y="0" type="line"/>
      <point x="522" y="0" type="line"/>
      <point x="522" y="856" type="line"/>
      <point x="880" y="856" type="line"/>
      <point x="880" y="960" type="line"/>
      <point x="64" y="960" type="line"/>
      <point x="40" y="856" type="line"/>
      <point x="410" y="856" type="line"/>
    </contour>
  </outline>
</glyph>
<glyph name="Ghemiddlehook-cy" format="2">
  <advance width="1276"/>
  <unicode hex="0494"/>
  <outline>
    <contour>
      <point x="200" y="0" type="line"/>
      <point x="316" y="0" type="line"/>
      <point x="316" y="1292" type="line"/>
      <point x="1008" y="1292" type="line"/>
      <point x="1008" y="1400" type="line"/>
      <point x="200" y="1400" type="line"/>
    </contour>
    <contour>
      <point x="794" y="-270" type="line"/>
      <point x="1068" y="-172"/>
      <point x="1196" y="78"/>
      <point x="1196" y="324" type="curve" smooth="yes"/>
      <point x="1196" y="676"/>
      <point x="962" y="846"/>
      <point x="630" y="846" type="curve" smooth="yes"/>
      <point x="512" y="846"/>
      <point x="382" y="822"/>
      <point x="246" y="764" type="curve"/>
      <point x="244" y="656" type="line"/>
      <point x="376" y="712"/>
      <point x="502" y="736"/>
      <point x="630" y="736" type="curve" smooth="yes"/>
      <point x="890" y="736"/>
      <point x="1080" y="620"/>
      <point x="1080" y="324" type="curve" smooth="yes"/>
      <point x="1080" y="120"/>
      <point x="972" y="-92"/>
      <point x="744" y="-184" type="curve"/>
    </contour>
  </outline>
</glyph>
<glyph name="Enghe-cy" format="2">
  <advance width="1918"/>
  <unicode hex="04A4"/>
  <anchor x="1236" y="0" name="descender"/>
  <anchor x="718" y="1400" name="top"/>
  <anchor x="120" y="1400" name="topleft"/>
  <outline>
    <contour>
      <point x="1236" y="1292" type="line"/>
      <point x="1848" y="1292" type="line"/>
      <point x="1848" y="1400" type="line"/>
      <point x="1120" y="1400" type="line"/>
    </contour>
    <component base="En-cy"/>
  </outline>
</glyph>
<glyph name="Obarred-cy" format="2">
  <advance width="1676"/>
  <unicode hex="04E8"/>
  <anchor x="838" y="0" name="bottom"/>
  <anchor x="1240" y="1400" name="horn"/>
  <anchor x="1050" y="0" name="ogonek"/>
  <anchor x="838" y="1400" name="top"/>
  <anchor x="152" y="1400" name="topleft"/>
  <outline>
    <contour>
      <point x="190" y="668" type="line"/>
      <point x="1488" y="668" type="line"/>
      <point x="1488" y="776" type="line"/>
      <point x="190" y="776" type="line"/>
    </contour>
    <component base="O"/>
  </outline>
</glyph>
<glyph name="emdash" format="2">
  <advance width="2000"/>
  <unicode hex="2014"/>
  <outline>
    <contour>
      <point x="250" y="514" type="line"/>
      <point x="1750" y="514" type="line"/>
      <point x="1750" y="606" type="line"/>
      <point x="250" y="606" type="line"/>
    </contour>
  </outline>
</glyph>
<glyph name="perthousand" format="2">
  <advance width="2964"/>
  <unicode hex="2030"/>
  <outline>
    <contour>
      <point x="662" y="-30" type="line"/>
      <point x="1452" y="1390" type="line"/>
      <point x="1376" y="1430" type="line"/>
      <point x="586" y="16" type="line"/>
    </contour>
    <contour>
      <point x="464" y="710" type="curve" smooth="yes"/>
      <point x="664" y="710"/>
      <point x="826" y="870"/>
      <point x="826" y="1066" type="curve" smooth="yes"/>
      <point x="826" y="1260"/>
      <point x="664" y="1420"/>
      <point x="464" y="1420" type="curve" smooth="yes"/>
      <point x="264" y="1420"/>
      <point x="100" y="1260"/>
      <point x="100" y="1066" type="curve" smooth="yes"/>
      <point x="100" y="870"/>
      <point x="264" y="710"/>
    </contour>
    <contour>
      <point x="464" y="806" type="curve" smooth="yes"/>
      <point x="308" y="806"/>
      <point x="200" y="914"/>
      <point x="200" y="1066" type="curve" smooth="yes"/>
      <point x="200" y="1218"/>
      <point x="308" y="1324"/>
      <point x="464" y="1324" type="curve" smooth="yes"/>
      <point x="622" y="1324"/>
      <point x="726" y="1222"/>
      <point x="726" y="1066" type="curve" smooth="yes"/>
      <point x="726" y="910"/>
      <point x="622" y="806"/>
    </contour>
    <contour>
      <point x="1576" y="-20" type="curve" smooth="yes"/>
      <point x="1776" y="-20"/>
      <point x="1938" y="140"/>
      <point x="1938" y="336" type="curve" smooth="yes"/>
      <point x="1938" y="530"/>
      <point x="1776" y="690"/>
      <point x="1576" y="690" type="curve" smooth="yes"/>
      <point x="1376" y="690"/>
      <point x="1212" y="530"/>
      <point x="1212" y="336" type="curve" smooth="yes"/>
      <point x="1212" y="140"/>
      <point x="1376" y="-20"/>
    </contour>
    <contour>
      <point x="1576" y="76" type="curve" smooth="yes"/>
      <point x="1420" y="76"/>
      <point x="1312" y="184"/>
      <point x="1312" y="336" type="curve" smooth="yes"/>
      <point x="1312" y="488"/>
      <point x="1420" y="594"/>
      <point x="1576" y="594" type="curve" smooth="yes"/>
      <point x="1734" y="594"/>
      <point x="1838" y="492"/>
      <point x="1838" y="336" type="curve" smooth="yes"/>
      <point x="1838" y="180"/>
      <point x="1734" y="76"/>
    </contour>
    <contour>
      <point x="2502" y="-20" type="curve" smooth="yes"/>
      <point x="2702" y="-20"/>
      <point x="2864" y="140"/>
      <point x="2864" y="336" type="curve" smooth="yes"/>
      <point x="2864" y="530"/>
      <point x="2702" y="690"/>
      <point x="2502" y="690" type="curve" smooth="yes"/>
      <point x="2302" y="690"/>
      <point x="2138" y="530"/>
      <point x="2138" y="336" type="curve" smooth="yes"/>
      <point x="2138" y="140"/>
      <point x="2302" y="-20"/>
    </contour>
    <contour>
      <point x="2502" y="76" type="curve" smooth="yes"/>
      <point x="2346" y="76"/>
      <point x="2238" y="184"/>
      <point x="2238" y="336" type="curve" smooth="yes"/>
      <point x="2238" y="488"/>
      <point x="2346" y="594"/>
      <point x="2502" y="594" type="curve" smooth="yes"/>
      <point x="2660" y="594"/>
      <point x="2764" y="492"/>
      <point x="2764" y="336" type="curve" smooth="yes"/>
      <point x="2764" y="180"/>
      <point x="2660" y="76"/>
    </contour>
  </outline>
</glyph>
<glyph name="euro" format="2">
  <advance width="1296"/>
  <unicode hex="20AC"/>
  <outline>
    <contour>
      <point x="820" y="-30" type="curve" smooth="yes"/>
      <point x="964" y="-30"/>
      <point x="1090" y="12"/>
      <point x="1200" y="106" type="curve"/>
      <point x="1200" y="230" type="line"/>
      <point x="1096" y="124"/>
      <point x="974" y="82"/>
      <point x="840" y="82" type="curve" smooth="yes"/>
      <point x="590" y="82"/>
      <point x="414" y="232"/>
      <point x="356" y="496" type="curve"/>
      <point x="880" y="496" type="line"/>
      <point x="880" y="596" type="line"/>
      <point x="340" y="596" type="line"/>
      <point x="334" y="648"/>
      <point x="332" y="742"/>
      <point x="340" y="804" type="curve"/>
      <point x="880" y="804" type="line"/>
      <point x="880" y="904" type="line"/>
      <point x="356" y="904" type="line"/>
      <point x="414" y="1164"/>
      <point x="588" y="1320"/>
      <point x="828" y="1320" type="curve" smooth="yes"/>
      <point x="964" y="1320"/>
      <point x="1074" y="1276"/>
      <point x="1154" y="1198" type="curve"/>
      <point x="1154" y="1324" type="line"/>
      <point x="1066" y="1394"/>
      <point x="954" y="1430"/>
      <point x="820" y="1430" type="curve" smooth="yes"/>
      <point x="542" y="1430"/>
      <point x="328" y="1216"/>
      <point x="260" y="904" type="curve"/>
      <point x="60" y="904" type="line"/>
      <point x="60" y="804" type="line"/>
      <point x="242" y="804" type="line"/>
      <point x="236" y="748"/>
      <point x="234" y="668"/>
      <point x="240" y="596" type="curve"/>
      <point x="60" y="596" type="line"/>
      <point x="60" y="496" type="line"/>
      <point x="252" y="496" type="line"/>
      <point x="310" y="176"/>
      <point x="520" y="-30"/>
    </contour>
  </outline>
</glyph>
<glyph name="trademark" format="2">
  <advance width="1874"/>
  <unicode hex="2122"/>
  <anchor x="368" y="984" name="bar"/>
  <anchor x="368" y="560" name="bottom"/>
  <anchor x="368" y="1400" name="top"/>
  <outline>
    <contour>
      <point x="316" y="560" type="line"/>
      <point x="420" y="560" type="line"/>
      <point x="420" y="1304" type="line"/>
      <point x="676" y="1304" type="line"/>
      <point x="676" y="1400" type="line"/>
      <point x="72" y="1400" type="line"/>
      <point x="50" y="1304" type="line"/>
      <point x="316" y="1304" type="line"/>
    </contour>
    <contour>
      <point x="836" y="560" type="line"/>
      <point x="940" y="560" type="line"/>
      <point x="938" y="1210" type="line"/>
      <point x="1242" y="752" type="line"/>
      <point x="1326" y="752" type="line"/>
      <point x="1628" y="1210" type="line"/>
      <point x="1628" y="560" type="line"/>
      <point x="1732" y="560" type="line"/>
      <point x="1732" y="1400" type="line"/>
      <point x="1632" y="1400" type="line"/>
      <point x="1288" y="868" type="line"/>
      <point x="938" y="1400" type="line"/>
      <point x="836" y="1400" type="line"/>
    </contour>
  </outline>
</glyph>
<glyph name="_part.R" format="2">
  <advance width="762"/>
  <anchor x="364" y="392" name="_center"/>
  <anchor x="402" y="0" name="bottom"/>
  <anchor x="364" y="784" name="top"/>
  <outline>
    <contour>
      <point x="110" y="0" type="line"/>
      <point x="214" y="0" type="line"/>
      <point x="214" y="326" type="line"/>
      <point x="340" y="326" type="line"/>
      <point x="584" y="0" type="line"/>
      <point x="712" y="0" type="line"/>
      <point x="456" y="338" type="line"/>
      <point x="588" y="358"/>
      <point x="674" y="438"/>
      <point x="674" y="554" type="curve" smooth="yes"/>
      <point x="674" y="694"/>
      <point x="570" y="784"/>
      <point x="408" y="784" type="curve" smooth="yes"/>
      <point x="110" y="784" type="line"/>
    </contour>
    <contour>
      <point x="214" y="414" type="line"/>
      <point x="214" y="694" type="line"/>
      <point x="398" y="694" type="line" smooth="yes"/>
      <point x="512" y="694"/>
      <point x="568" y="638"/>
      <point x="568" y="550" type="curve" smooth="yes"/>
      <point x="568" y="464"/>
      <point x="500" y="414"/>
      <point x="386" y="414" type="curve" smooth="yes"/>
    </contour>
  </outline>
</glyph>
<glyph name="_part.cedi" format="2">
  <advance width="1296"/>
  <anchor x="714" y="0" name="bottom"/>
  <anchor x="714" y="1400" name="top"/>
  <outline>
    <contour>
      <point x="752" y="-30" type="curve" smooth="yes"/>
      <point x="910" y="-30"/>
      <point x="1046" y="10"/>
      <point x="1168" y="100" type="curve"/>
      <point x="1168" y="226" type="line"/>
      <point x="1054" y="120"/>
      <point x="920" y="78"/>
      <point x="772" y="78" type="curve" smooth="yes"/>
      <point x="434" y="78"/>
      <point x="220" y="306"/>
      <point x="220" y="702" type="curve" smooth="yes"/>
      <point x="220" y="1084"/>
      <point x="434" y="1324"/>
      <point x="760" y="1324" type="curve" smooth="yes"/>
      <point x="906" y="1324"/>
      <point x="1024" y="1284"/>
      <point x="1118" y="1202" type="curve"/>
      <point x="1118" y="1330" type="line"/>
      <point x="1026" y="1392"/>
      <point x="900" y="1430"/>
      <point x="750" y="1430" type="curve" smooth="yes"/>
      <point x="376" y="1430"/>
      <point x="102" y="1114"/>
      <point x="102" y="684" type="curve" smooth="yes"/>
      <point x="102" y="258"/>
      <point x="358" y="-30"/>
    </contour>
  </outline>
</glyph>
<glyph name="_part.currencyVertDiag" format="2">
  <advance width="1424"/>
  <anchor x="812" y="1400" name="_top"/>
  <outline>
    <contour>
      <point x="720" y="-160" type="line"/>
      <point x="814" y="-160" type="line"/>
      <point x="1118" y="1560" type="line"/>
      <point x="1020" y="1560" type="line"/>
    </contour>
    <contour>
      <point x="414" y="-160" type="line"/>
      <point x="512" y="-160" type="line"/>
      <point x="812" y="1560" type="line"/>
      <point x="718" y="1560" type="line"/>
    </contour>
  </outline>
</glyph>
<glyph name="_part.cy-desc-lc-reversed" format="2">
  <advance width="1200"/>
  <anchor x="1098" y="0" name="_descender"/>
  <outline>
    <contour>
      <point x="966" y="-236" type="line"/>
      <point x="966" y="0" type="line"/>
      <point x="1178" y="0" type="line"/>
      <point x="1178" y="104" type="line"/>
      <point x="862" y="104" type="line"/>
      <point x="862" y="-364" type="line"/>
    </contour>
  </outline>
</glyph>
<glyph name="_part.cy-desc-uc-reversed" format="2">
  <advance width="572"/>
  <anchor x="-120" y="0" name="_descender"/>
  <outline>
    <contour>
      <point x="-340" y="-428" type="line"/>
      <point x="-232" y="-292" type="line"/>
      <point x="-232" y="0" type="line"/>
      <point x="-72" y="0" type="line"/>
      <point x="-72" y="108" type="line"/>
      <point x="-340" y="108" type="line"/>
    </contour>
  </outline>
</glyph>
<glyph name="_part.naira" format="2">
  <advance width="1296"/>
  <anchor x="648" y="0" name="bottom"/>
  <anchor x="648" y="1400" name="top"/>
  <outline>
    <contour>
      <point x="196" y="0" type="line"/>
      <point x="310" y="0" type="line"/>
      <point x="310" y="1194" type="line"/>
      <point x="1002" y="0" type="line"/>
      <point x="1100" y="0" type="line"/>
      <point x="1100" y="1400" type="line"/>
      <point x="988" y="1400" type="line"/>
      <point x="988" y="218" type="line"/>
      <point x="296" y="1400" type="line"/>
      <point x="196" y="1400" type="line"/>
    </contour>
  </outline>
</glyph>
<glyph name="a.ss01" format="2">
  <advance width="1254"/>
  <anchor x="596" y="0" name="bottom"/>
  <anchor x="1084" y="0" name="ogonek"/>
  <anchor x="596" y="960" name="top"/>
  <outline>
    <contour>
      <point x="584" y="-30" type="curve" smooth="yes"/>
      <point x="786" y="-30"/>
      <point x="908" y="64"/>
      <point x="990" y="188" type="curve"/>
      <point x="972" y="212" type="line"/>
      <point x="972" y="0" type="line"/>
      <point x="1084" y="0" type="line"/>
      <point x="1084" y="1000" type="line"/>
      <point x="932" y="808" type="line"/>
      <point x="932" y="708" type="line"/>
      <point x="990" y="772" type="line"/>
      <point x="908" y="896"/>
      <point x="786" y="990"/>
      <point x="584" y="990" type="curve" smooth="yes"/>
      <point x="284" y="990"/>
      <point x="80" y="758"/>
      <point x="80" y="480" type="curve" smooth="yes"/>
      <point x="80" y="202"/>
      <point x="284" y="-30"/>
    </contour>
    <contour>
      <point x="586" y="78" type="curve" smooth="yes"/>
      <point x="360" y="78"/>
      <point x="200" y="234"/>
      <point x="200" y="480" type="curve" smooth="yes"/>
      <point x="200" y="726"/>
      <point x="360" y="882"/>
      <point x="586" y="882" type="curve" smooth="yes"/>
      <point x="812" y="882"/>
      <point x="972" y="726"/>
      <point x="972" y="480" type="curve" smooth="yes"/>
      <point x="972" y="234"/>
      <point x="812" y="78"/>
    </contour>
  </outline>
</glyph>
<glyph name="brevecomb.narrow" format="2">
  <anchor x="294" y="960" name="_top"/>
  <anchor x="294" y="1404" name="top"/>
  <outline>
    <contour>
      <point x="294" y="1160" type="curve" smooth="yes"/>
      <point x="460" y="1160"/>
      <point x="580" y="1308"/>
      <point x="576" y="1504" type="curve"/>
      <point x="474" y="1504" type="line"/>
      <point x="482" y="1356"/>
      <point x="406" y="1256"/>
      <point x="294" y="1256" type="curve" smooth="yes"/>
      <point x="180" y="1256"/>
      <point x="104" y="1356"/>
      <point x="110" y="1504" type="curve"/>
      <point x="10" y="1504" type="line"/>
      <point x="4" y="1306"/>
      <point x="124" y="1160"/>
    </contour>
  </outline>
</glyph>
<glyph name="breveinvertedcomb.narrow" format="2">
  <anchor x="294" y="960" name="_top"/>
  <outline>
    <contour>
      <point x="10" y="1170" type="curve"/>
      <point x="110" y="1170" type="line"/>
      <point x="104" y="1318"/>
      <point x="180" y="1418"/>
      <point x="294" y="1418" type="curve" smooth="yes"/>
      <point x="406" y="1418"/>
      <point x="482" y="1318"/>
      <point x="474" y="1170" type="curve"/>
      <point x="576" y="1170" type="line"/>
      <point x="580" y="1366"/>
      <point x="460" y="1514"/>
      <point x="294" y="1514" type="curve" smooth="yes"/>
      <point x="124" y="1514"/>
      <point x="4" y="1368"/>
    </contour>
  </outline>
</glyph>
<glyph name="commaturnedabovecomb.case" format="2">
  <anchor x="110" y="1398" name="_top"/>
  <outline>
    <contour>
      <point x="112" y="1660" type="curve" smooth="yes"/>
      <point x="164" y="1660"/>
      <point x="206" y="1696"/>
      <point x="206" y="1742" type="curve" smooth="yes"/>
      <point x="206" y="1796"/>
      <point x="162" y="1832"/>
      <point x="106" y="1832" type="curve"/>
      <point x="112" y="1874"/>
      <point x="188" y="1924"/>
      <point x="258" y="1962" type="curve"/>
      <point x="206" y="2016" type="line"/>
      <point x="80" y="1942"/>
      <point x="10" y="1856"/>
      <point x="10" y="1766" type="curve" smooth="yes"/>
      <point x="10" y="1702"/>
      <point x="50" y="1660"/>
    </contour>
  </outline>
</glyph>
<glyph name="dieresiscomb.case" format="2">
  <anchor x="292" y="1398" name="_top"/>
  <anchor x="292" y="1704" name="top"/>
  <outline>
    <contour>
      <point x="106" y="1584" type="curve" smooth="yes"/>
      <point x="160" y="1584"/>
      <point x="202" y="1626"/>
      <point x="202" y="1676" type="curve" smooth="yes"/>
      <point x="202" y="1726"/>
      <point x="158" y="1766"/>
      <point x="106" y="1766" type="curve" smooth="yes"/>
      <point x="54" y="1766"/>
      <point x="10" y="1726"/>
      <point x="10" y="1676" type="curve" smooth="yes"/>
      <point x="10" y="1626"/>
      <point x="52" y="1584"/>
    </contour>
    <contour>
      <point x="480" y="1584" type="curve" smooth="yes"/>
      <point x="532" y="1584"/>
      <point x="576" y="1626"/>
      <point x="576" y="1676" type="curve" smooth="yes"/>
      <point x="576" y="1726"/>
      <point x="532" y="1766"/>
      <point x="480" y="1766" type="curve" smooth="yes"/>
      <point x="426" y="1766"/>
      <point x="384" y="1724"/>
      <point x="384" y="1676" type="curve" smooth="yes"/>
      <point x="384" y="1626"/>
      <point x="426" y="1584"/>
    </contour>
  </outline>
</glyph>
<glyph name="dieresiscomb.narrow" format="2">
  <anchor x="236" y="960" name="_top"/>
  <anchor x="236" y="1284" name="top"/>
  <outline>
    <contour>
      <point x="104" y="1162" type="curve" smooth="yes"/>
      <point x="156" y="1162"/>
      <point x="198" y="1204"/>
      <point x="198" y="1256" type="curve" smooth="yes"/>
      <point x="198" y="1308"/>
      <point x="156" y="1350"/>
      <point x="104" y="1350" type="curve" smooth="yes"/>
      <point x="52" y="1350"/>
      <point x="10" y="1308"/>
      <point x="10" y="1256" type="curve" smooth="yes"/>
      <point x="10" y="1204"/>
      <point x="52" y="1162"/>
    </contour>
    <contour>
      <point x="368" y="1162" type="curve" smooth="yes"/>
      <point x="420" y="1162"/>
      <point x="462" y="1204"/>
      <point x="462" y="1256" type="curve" smooth="yes"/>
      <point x="462" y="1308"/>
      <point x="420" y="1350"/>
      <point x="368" y="1350" type="curve" smooth="yes"/>
      <point x="316" y="1350"/>
      <point x="274" y="1308"/>
      <point x="274" y="1256" type="curve" smooth="yes"/>
      <point x="274" y="1204"/>
      <point x="316" y="1162"/>
    </contour>
  </outline>
</glyph>
<glyph name="four.numr" format="2">
  <advance width="844"/>
  <outline>
    <contour>
      <point x="528" y="490" type="line"/>
      <point x="624" y="490" type="line"/>
      <point x="624" y="686" type="line"/>
      <point x="778" y="686" type="line"/>
      <point x="778" y="778" type="line"/>
      <point x="624" y="778" type="line"/>
      <point x="624" y="994" type="line"/>
      <point x="528" y="994" type="line"/>
      <point x="528" y="778" type="line"/>
      <point x="162" y="778" type="line"/>
      <point x="520" y="1400" type="line"/>
      <point x="408" y="1400" type="line"/>
      <point x="48" y="770" type="line"/>
      <point x="48" y="686" type="line"/>
      <point x="528" y="686" type="line"/>
    </contour>
  </outline>
</glyph>
<glyph name="horncomb.alt" format="2">
  <anchor x="58" y="960" name="_horn"/>
  <outline>
    <contour>
      <point x="78" y="802" type="curve" smooth="yes"/>
      <point x="206" y="802"/>
      <point x="270" y="886"/>
      <point x="270" y="984" type="curve" smooth="yes"/>
      <point x="270" y="1035"/>
      <point x="252" y="1094"/>
      <point x="211" y="1150" type="curve"/>
      <point x="102" y="1150" type="line"/>
      <point x="144" y="1086"/>
      <point x="164" y="1027"/>
      <point x="164" y="982" type="curve" smooth="yes"/>
      <point x="164" y="926"/>
      <point x="134" y="886"/>
      <point x="58" y="886" type="curve" smooth="yes"/>
      <point x="46" y="886"/>
      <point x="30" y="888"/>
      <point x="10" y="892" type="curve"/>
      <point x="10" y="812" type="line"/>
      <point x="36" y="806"/>
      <point x="58" y="802"/>
    </contour>
  </outline>
</glyph>
<glyph name="three.dnom" format="2">
  <advance width="816"/>
  <outline>
    <contour>
      <point x="372" y="-20" type="curve" smooth="yes"/>
      <point x="568" y="-20"/>
      <point x="708" y="94"/>
      <point x="708" y="266" type="curve" smooth="yes"/>
      <point x="708" y="452"/>
      <point x="542" y="542"/>
      <point x="352" y="532" type="curve"/>
      <point x="666" y="826" type="line"/>
      <point x="666" y="910" type="line"/>
      <point x="98" y="910" type="line"/>
      <point x="78" y="818" type="line"/>
      <point x="532" y="818" type="line"/>
      <point x="208" y="518" type="line"/>
      <point x="242" y="446" type="line"/>
      <point x="280" y="454"/>
      <point x="322" y="458"/>
      <point x="354" y="458" type="curve" smooth="yes"/>
      <point x="504" y="458"/>
      <point x="602" y="388"/>
      <point x="602" y="270" type="curve" smooth="yes"/>
      <point x="602" y="152"/>
      <point x="510" y="76"/>
      <point x="366" y="76" type="curve" smooth="yes"/>
      <point x="276" y="76"/>
      <point x="172" y="106"/>
      <point x="108" y="156" type="curve"/>
      <point x="108" y="47" type="line"/>
      <point x="174" y="7"/>
      <point x="275" y="-20"/>
    </contour>
  </outline>
</glyph>
<glyph name="three.numr" format="2">
  <advance width="816"/>
  <outline>
    <contour>
      <point x="372" y="470" type="curve" smooth="yes"/>
      <point x="568" y="470"/>
      <point x="708" y="584"/>
      <point x="708" y="756" type="curve" smooth="yes"/>
      <point x="708" y="942"/>
      <point x="542" y="1032"/>
      <point x="352" y="1022" type="curve"/>
      <point x="666" y="1316" type="line"/>
      <point x="666" y="1400" type="line"/>
      <point x="98" y="1400" type="line"/>
      <point x="78" y="1308" type="line"/>
      <point x="532" y="1308" type="line"/>
      <point x="208" y="1008" type="line"/>
      <point x="242" y="936" type="line"/>
      <point x="280" y="944"/>
      <point x="322" y="948"/>
      <point x="354" y="948" type="curve" smooth="yes"/>
      <point x="504" y="948"/>
      <point x="602" y="878"/>
      <point x="602" y="760" type="curve" smooth="yes"/>
      <point x="602" y="642"/>
      <point x="510" y="566"/>
      <point x="366" y="566" type="curve" smooth="yes"/>
      <point x="278" y="566"/>
      <point x="172" y="596"/>
      <point x="108" y="646" type="curve"/>
      <point x="108" y="537" type="line"/>
      <point x="174" y="497"/>
      <point x="275" y="470"/>
    </contour>
  </outline>
</glyph>
<glyph name="ze-cy.loclBGR" format="2">
  <advance width="973"/>
  <anchor x="440" y="-420" name="bottom"/>
  <anchor x="428" y="960" name="top"/>
  <outline>
    <contour>
      <point x="422" y="-450" type="curve" smooth="yes"/>
      <point x="678" y="-450"/>
      <point x="878" y="-288"/>
      <point x="880" y="-56" type="curve" smooth="yes"/>
      <point x="882" y="136"/>
      <point x="764" y="266"/>
      <point x="610" y="306" type="curve"/>
      <point x="736" y="348"/>
      <point x="842" y="490"/>
      <point x="842" y="640" type="curve" smooth="yes"/>
      <point x="842" y="846"/>
      <point x="684" y="988"/>
      <point x="434" y="988" type="curve" smooth="yes"/>
      <point x="300" y="988"/>
      <point x="176" y="944"/>
      <point x="82" y="868" type="curve"/>
      <point x="82" y="748" type="line"/>
      <point x="174" y="830"/>
      <point x="294" y="880"/>
      <point x="428" y="880" type="curve" smooth="yes"/>
      <point x="612" y="880"/>
      <point x="722" y="784"/>
      <point x="722" y="622" type="curve" smooth="yes"/>
      <point x="722" y="458"/>
      <point x="576" y="346"/>
      <point x="394" y="346" type="curve" smooth="yes"/>
      <point x="218" y="346" type="line"/>
      <point x="194" y="242" type="line"/>
      <point x="402" y="242" type="line" smooth="yes"/>
      <point x="602" y="242"/>
      <point x="760" y="152"/>
      <point x="760" y="-56" type="curve" smooth="yes"/>
      <point x="760" y="-236"/>
      <point x="626" y="-342"/>
      <point x="422" y="-342" type="curve" smooth="yes"/>
      <point x="270" y="-342"/>
      <point x="132" y="-290"/>
      <point x="42" y="-200" type="curve"/>
      <point x="42" y="-332" type="line"/>
      <point x="144" y="-408"/>
      <point x="280" y="-450"/>
    </contour>
  </outline>
</glyph>
